<svg width="59" height="57" viewBox="0 0 59 57" fill="none" xmlns="http://www.w3.org/2000/svg">
<path d="M29.8217 2.33754C15.0996 2.33754 3.12173 14.0866 3.12173 28.53C3.12173 42.9734 15.0996 54.7224 29.8217 54.7224C44.5439 54.7224 56.5217 42.9734 56.5217 28.53C56.5217 14.0866 44.5439 2.33754 29.8217 2.33754ZM21.6956 39.918H17.0522V22.836H21.6956V39.918ZM19.3739 19.4196C18.0911 19.4196 17.0522 18.4003 17.0522 17.142C17.0522 15.8836 18.0911 14.8644 19.3739 14.8644C20.6567 14.8644 21.6956 15.8836 21.6956 17.142C21.6956 18.4003 20.6567 19.4196 19.3739 19.4196ZM43.7522 39.918H39.1087V34.224V31.377C39.1087 29.1848 37.2803 27.3912 35.0456 27.3912C32.811 27.3912 30.9826 29.1848 30.9826 31.377V39.918H26.3391V22.836H30.9826V24.904C32.3385 23.6263 34.1773 22.836 36.2065 22.836C40.374 22.836 43.7522 26.1499 43.7522 30.2382V39.918Z" fill="black"/>
</svg>
