<svg width="59" height="57" viewBox="0 0 59 57" fill="none" xmlns="http://www.w3.org/2000/svg">
<path d="M20.8009 53.3968C21.6262 53.0484 22.2044 52.2432 22.2044 51.306V45.1565C22.2044 44.9321 22.2229 44.6987 22.252 44.4618C22.2357 44.4664 22.2206 44.4698 22.2044 44.4732C22.2044 44.4732 18.7217 44.4732 18.0252 44.4732C16.2839 44.4732 14.7748 43.7899 14.0783 42.4233C13.2657 40.9429 12.9174 38.4375 10.8278 37.071C10.4796 36.8432 10.7117 36.5016 11.4083 36.5016C12.1048 36.6155 13.6139 37.5265 14.5426 38.7792C15.5874 40.0319 16.6322 41.0568 18.4896 41.0568C21.3767 41.0568 22.9241 40.9144 23.8551 40.4247C24.9394 38.843 26.4404 37.6404 28.0087 37.6404V37.6119C21.4289 37.4046 17.2254 35.2591 15.2682 31.9464C11.0136 31.9942 7.30924 32.4076 5.1953 32.7515C5.12797 32.3791 5.06992 32.0044 5.02 31.6275C7.10609 31.2904 10.6421 30.8907 14.7075 30.8144C14.5774 30.5001 14.4648 30.1778 14.3696 29.8476C10.2938 29.6449 6.7764 29.8031 4.86561 29.958C4.84239 29.5799 4.81105 29.203 4.8064 28.8204C6.72068 28.6666 10.1429 28.5129 14.1143 28.694C14.0225 28.1246 13.9633 27.5426 13.9633 26.9368C13.9633 25.0008 14.6599 22.951 15.9368 21.2428C15.3564 19.3068 14.5438 15.2071 16.169 13.7267C19.3033 13.7267 21.509 15.2071 22.5538 16.1182C24.5261 15.3199 26.7317 14.8644 29.1696 14.8644C31.6074 14.8644 33.8131 15.3199 35.6704 16.117C36.7152 15.206 38.9209 13.7256 42.0552 13.7256C43.7965 15.3199 42.8678 19.4196 42.2874 21.2416C43.5644 22.9498 44.2609 24.8858 44.1448 26.9356C44.1448 27.4868 44.0926 28.0186 44.0171 28.5402C48.079 28.3443 51.5941 28.5015 53.5409 28.6564C53.5385 29.0402 53.5026 29.4148 53.4817 29.794C51.5419 29.6369 47.9385 29.4752 43.778 29.6927C43.6746 30.0753 43.5493 30.4477 43.4007 30.8087C47.5171 30.8611 51.1379 31.2517 53.3238 31.5933C53.2739 31.9714 53.2158 32.3461 53.1485 32.7173C50.9289 32.3689 47.1456 31.9612 42.8411 31.9407C40.9083 35.2181 36.7814 37.3557 30.3304 37.6051V37.6404C33.3487 37.6404 36.1348 42.0817 36.1348 45.1565V51.306C36.1348 52.2432 36.7129 53.0484 37.5383 53.3968C48.173 49.944 55.8696 40.1047 55.8696 28.53C55.8696 14.0877 43.8929 2.33754 29.1696 2.33754C14.4463 2.33754 2.46957 14.0877 2.46957 28.53C2.46957 40.1047 10.1661 49.944 20.8009 53.3968Z" fill="black"/>
</svg>
