<svg width="251" height="90" viewBox="0 0 251 90" fill="none" xmlns="http://www.w3.org/2000/svg">
<path fill-rule="evenodd" clip-rule="evenodd" d="M83 22.5L41.5 0L0 22.5V67.5L41.5 90L83 67.5V22.5ZM71.2585 25.6305L41.5 9.32926V45.1829L74.226 63.1097V30.644C74.226 28.5552 73.0879 26.6328 71.2585 25.6305Z" fill="#0B0B0C"/>
<path d="M102.616 52.9605V35.2605H95.6561V31.9605H113.476V35.2605H106.516V52.9605H102.616ZM121.932 53.1705C120.152 53.1705 118.592 52.8205 117.252 52.1205C115.932 51.4005 114.902 50.4205 114.162 49.1805C113.442 47.9405 113.082 46.5305 113.082 44.9505C113.082 43.3505 113.432 41.9405 114.132 40.7205C114.852 39.4805 115.832 38.5105 117.072 37.8105C118.332 37.1105 119.762 36.7605 121.362 36.7605C122.922 36.7605 124.312 37.1005 125.532 37.7805C126.752 38.4605 127.712 39.4205 128.412 40.6605C129.112 41.9005 129.462 43.3605 129.462 45.0405C129.462 45.2005 129.452 45.3805 129.432 45.5805C129.432 45.7805 129.422 45.9705 129.402 46.1505H116.052V43.6605H127.422L125.952 44.4405C125.972 43.5205 125.782 42.7105 125.382 42.0105C124.982 41.3105 124.432 40.7605 123.732 40.3605C123.052 39.9605 122.262 39.7605 121.362 39.7605C120.442 39.7605 119.632 39.9605 118.932 40.3605C118.252 40.7605 117.712 41.3205 117.312 42.0405C116.932 42.7405 116.742 43.5705 116.742 44.5305V45.1305C116.742 46.0905 116.962 46.9405 117.402 47.6805C117.842 48.4205 118.462 48.9905 119.262 49.3905C120.062 49.7905 120.982 49.9905 122.022 49.9905C122.922 49.9905 123.732 49.8505 124.452 49.5705C125.172 49.2905 125.812 48.8505 126.372 48.2505L128.382 50.5605C127.662 51.4005 126.752 52.0505 125.652 52.5105C124.572 52.9505 123.332 53.1705 121.932 53.1705ZM140.414 53.1705C138.734 53.1705 137.234 52.8205 135.914 52.1205C134.614 51.4005 133.594 50.4205 132.854 49.1805C132.114 47.9405 131.744 46.5305 131.744 44.9505C131.744 43.3505 132.114 41.9405 132.854 40.7205C133.594 39.4805 134.614 38.5105 135.914 37.8105C137.234 37.1105 138.734 36.7605 140.414 36.7605C141.974 36.7605 143.344 37.0805 144.524 37.7205C145.724 38.3405 146.634 39.2605 147.254 40.4805L144.374 42.1605C143.894 41.4005 143.304 40.8405 142.604 40.4805C141.924 40.1205 141.184 39.9405 140.384 39.9405C139.464 39.9405 138.634 40.1405 137.894 40.5405C137.154 40.9405 136.574 41.5205 136.154 42.2805C135.734 43.0205 135.524 43.9105 135.524 44.9505C135.524 45.9905 135.734 46.8905 136.154 47.6505C136.574 48.3905 137.154 48.9605 137.894 49.3605C138.634 49.7605 139.464 49.9605 140.384 49.9605C141.184 49.9605 141.924 49.7805 142.604 49.4205C143.304 49.0605 143.894 48.5005 144.374 47.7405L147.254 49.4205C146.634 50.6205 145.724 51.5505 144.524 52.2105C143.344 52.8505 141.974 53.1705 140.414 53.1705ZM159.586 36.7605C160.866 36.7605 162.006 37.0105 163.006 37.5105C164.026 38.0105 164.826 38.7805 165.406 39.8205C165.986 40.8405 166.276 42.1605 166.276 43.7805V52.9605H162.526V44.2605C162.526 42.8405 162.186 41.7805 161.506 41.0805C160.846 40.3805 159.916 40.0305 158.716 40.0305C157.836 40.0305 157.056 40.2105 156.376 40.5705C155.696 40.9305 155.166 41.4705 154.786 42.1905C154.426 42.8905 154.246 43.7805 154.246 44.8605V52.9605H150.496V36.9405H154.066V41.2605L153.436 39.9405C153.996 38.9205 154.806 38.1405 155.866 37.6005C156.946 37.0405 158.186 36.7605 159.586 36.7605ZM178.263 53.1705C176.623 53.1705 175.163 52.8205 173.883 52.1205C172.603 51.4005 171.593 50.4205 170.853 49.1805C170.113 47.9405 169.743 46.5305 169.743 44.9505C169.743 43.3505 170.113 41.9405 170.853 40.7205C171.593 39.4805 172.603 38.5105 173.883 37.8105C175.163 37.1105 176.623 36.7605 178.263 36.7605C179.923 36.7605 181.393 37.1105 182.673 37.8105C183.973 38.5105 184.983 39.4705 185.703 40.6905C186.443 41.9105 186.813 43.3305 186.813 44.9505C186.813 46.5305 186.443 47.9405 185.703 49.1805C184.983 50.4205 183.973 51.4005 182.673 52.1205C181.393 52.8205 179.923 53.1705 178.263 53.1705ZM178.263 49.9605C179.183 49.9605 180.003 49.7605 180.723 49.3605C181.443 48.9605 182.003 48.3805 182.403 47.6205C182.823 46.8605 183.033 45.9705 183.033 44.9505C183.033 43.9105 182.823 43.0205 182.403 42.2805C182.003 41.5205 181.443 40.9405 180.723 40.5405C180.003 40.1405 179.193 39.9405 178.293 39.9405C177.373 39.9405 176.553 40.1405 175.833 40.5405C175.133 40.9405 174.573 41.5205 174.153 42.2805C173.733 43.0205 173.523 43.9105 173.523 44.9505C173.523 45.9705 173.733 46.8605 174.153 47.6205C174.573 48.3805 175.133 48.9605 175.833 49.3605C176.553 49.7605 177.363 49.9605 178.263 49.9605ZM194.028 53.2605C192.688 53.2605 191.448 53.0005 190.308 52.4805C189.188 51.9605 188.268 51.2105 187.548 50.2305L189.768 47.5605C190.348 48.3605 190.978 48.9605 191.658 49.3605C192.358 49.7605 193.118 49.9605 193.938 49.9605C196.118 49.9605 197.208 48.6705 197.208 46.0905V35.2305H189.738V31.9605H201.108V45.8805C201.108 48.3605 200.498 50.2105 199.278 51.4305C198.078 52.6505 196.328 53.2605 194.028 53.2605ZM206.219 52.9605V36.9405H209.789V41.3505L209.369 40.0605C209.849 38.9805 210.599 38.1605 211.619 37.6005C212.659 37.0405 213.949 36.7605 215.489 36.7605V40.3305C215.329 40.2905 215.179 40.2705 215.039 40.2705C214.899 40.2505 214.759 40.2405 214.619 40.2405C213.199 40.2405 212.069 40.6605 211.229 41.5005C210.389 42.3205 209.969 43.5505 209.969 45.1905V52.9605H206.219Z" fill="black"/>
</svg>
